<?xml version="1.0" encoding="UTF-8"?>
<svg id="Capa_2" data-name="Capa 2" xmlns="http://www.w3.org/2000/svg" viewBox="0 0 265 115">
  <defs>
    <style>
      .cls-1 {
        fill: none;
      }

      .cls-2 {
        fill: #101010;
      }
    </style>
  </defs>
  <g id="Capa_1-2" data-name="Capa 1">
    <g>
      <rect class="cls-1" width="265" height="115"/>
      <g id="Capa_1-2" data-name="Capa 1-2">
        <g>
          <g>
            <path class="cls-2" d="m88.76,64.32c0-3.52,1.2-6.57,3.57-9.06.96-4.19,3.37-13.18,3.37-13.18h-6.19l-3.16,13.46c-.72-1.15-1.57-2-2.54-2.54-.97-.54-2.13-.81-3.49-.81-2.86,0-5.22,1.21-7.07,3.63-1.86,2.42-2.78,5.48-2.78,9.18,0,2.49.61,4.43,1.83,5.81,1.22,1.38,2.92,2.07,5.1,2.07,1.31,0,2.52-.28,3.62-.84,1.1-.56,2.05-1.37,2.84-2.43l-.47,2.69h5.86s.28-2.25.46-3.44c-.63-1.29-.95-2.81-.95-4.55h0Zm-3.91-1.18c-.35,1.56-.79,2.91-1.33,4.05-.45.95-.98,1.66-1.59,2.14-.62.48-1.32.71-2.11.71-.92,0-1.65-.31-2.2-.94-.56-.63-.83-1.47-.83-2.52,0-1.39.2-2.91.59-4.56.39-1.65.86-2.98,1.4-3.98.49-.91,1.05-1.6,1.69-2.09s1.3-.73,1.98-.73c.89,0,1.6.33,2.13.98.53.66.8,1.54.8,2.64,0,1.3-.18,2.73-.52,4.29h0Z"/>
            <path class="cls-2" d="m90.01,64.32c0-3.4,1.15-6.29,3.44-8.69,2.3-2.39,5.08-3.59,8.36-3.59,3.01,0,5.33.74,6.97,2.23,1.64,1.49,2.46,3.59,2.46,6.31,0,3.42-1.18,6.34-3.54,8.74-2.37,2.4-5.24,3.6-8.63,3.6-2.86,0-5.08-.75-6.68-2.25-1.6-1.5-2.39-3.62-2.39-6.35h0Zm12.18-10.51c-.81,0-1.55.33-2.22.99-.66.66-1.28,1.67-1.86,3.05-.62,1.47-1.1,3.01-1.46,4.61-.35,1.61-.53,3.02-.53,4.24,0,1.33.24,2.34.73,3.05s1.17,1.06,2.07,1.06c.75,0,1.45-.28,2.12-.83.66-.55,1.26-1.38,1.78-2.48.71-1.44,1.26-3.01,1.66-4.71.4-1.7.6-3.32.6-4.87,0-1.3-.25-2.31-.77-3.03-.51-.72-1.22-1.08-2.12-1.08h0Z"/>
          </g>
          <g>
            <path class="cls-2" d="m140.31,67.8c0-2.26.68-4.02,2.04-5.24.28-.25.58-.47.92-.68.37-1.64.62-2.91.75-3.8h-.04l.08-.33c.04-.32.06-.59.06-.79,0-1.56-.46-2.75-1.37-3.57s-2.23-1.23-3.97-1.23c-1.34,0-2.58.29-3.71.87-1.14.58-2.17,1.46-3.1,2.63-.24-1.17-.77-2.05-1.6-2.63-.83-.58-1.97-.87-3.39-.87-1.24,0-2.42.25-3.56.75s-2.28,1.26-3.4,2.28c.11-.48.73-2.58.73-2.58h-6.22s-1.19,6.75-1.89,10.03c-.7,3.27-2.29,9.67-2.29,9.67h6.67s1.73-11.03,2.75-13.37c1.03-2.34,2.43-3.51,4.23-3.51.51,0,.94.22,1.27.65.34.43.5,1.01.5,1.73,0,.8-.29,2.58-.86,5.35-.58,2.76-2.23,9.16-2.23,9.16h6.32s1.95-11.18,2.93-13.46c.99-2.28,2.29-3.43,3.92-3.43.64,0,1.14.2,1.51.6.36.4.54.97.54,1.7,0,.85-.28,2.57-.86,5.16-.57,2.59-2.39,9.43-2.39,9.43h6.63s.08-.67.13-1.01c-.73-.94-1.11-2.11-1.11-3.49h0Z"/>
            <path class="cls-2" d="m152.3,69.73c-.54,1.03-1.25,1.81-2.13,2.31-.88.5-1.96.76-3.22.76-1.65,0-2.96-.45-3.93-1.36-.97-.91-1.45-2.12-1.45-3.64,0-2.1.61-3.7,1.84-4.81,1.24-1.11,3.18-1.81,5.85-2.1.39-.04.91-.09,1.54-.14,2.31-.19,3.46-1.21,3.46-3.03,0-.89-.3-1.57-.89-2.05-.6-.47-1.45-.71-2.57-.71s-2.11.2-2.92.59c-.8.39-1.47,1-2.01,1.83l-.45.04c.13-.51.24-1.04.32-1.57.09-.54.15-1.08.21-1.63,1.32-.71,2.59-1.22,3.8-1.55,1.21-.32,2.47-.48,3.78-.48,2.05,0,3.63.44,4.76,1.32,1.13.88,1.69,2.12,1.69,3.72,0,.92-.31,2.72-.93,5.41-.09.42-.16.74-.21.97-.43,1.89-.73,3.23-.89,4.02-.15.79-.23,1.33-.23,1.6,0,.48.12.85.37,1.09.25.24.62.36,1.12.36.13,0,.27,0,.42-.04.14-.03.35-.08.63-.16l-.08,1.36c-.53.28-1.1.48-1.7.61-.6.13-1.26.2-1.98.2-1.18,0-2.11-.24-2.79-.72-.68-.48-1.14-1.22-1.4-2.21h0Zm.89-7.14h-.47c-1.72,0-3.03.41-3.93,1.24s-1.35,2.01-1.35,3.56c0,.73.17,1.3.52,1.7.35.4.85.6,1.49.6.98,0,1.73-.43,2.25-1.3.52-.87,1.01-2.8,1.48-5.8h0Z"/>
          </g>
          <g>
            <path class="cls-2" d="m174.58,67.8c0-1.83.45-3.33,1.34-4.49-.08-.14-.17-.29-.26-.42-.62-.87-1.79-1.83-3.5-2.88l-.3-.16c-2.28-1.35-3.43-2.49-3.43-3.42,0-.68.25-1.22.76-1.62.5-.4,1.2-.6,2.08-.6,1.27,0,2.3.41,3.09,1.24.78.82,1.26,2,1.42,3.52l.57.12c.29-.77.6-1.52.95-2.24.34-.72.71-1.41,1.1-2.07-.86-.83-1.91-1.46-3.15-1.91-1.24-.44-2.56-.67-3.98-.67-2.2,0-4,.64-5.41,1.93-1.39,1.28-2.09,2.9-2.09,4.84s1.4,3.84,4.21,5.71l.38.26c1.23.81,2.02,1.44,2.36,1.89.34.44.51.95.51,1.5,0,.72-.26,1.29-.78,1.71-.52.42-1.23.63-2.13.63-1.31,0-2.39-.41-3.23-1.22-.84-.81-1.51-2.1-2.01-3.86l-.47-.12c-.23.85-.48,1.68-.76,2.49-.28.81-.59,1.61-.94,2.39.89.79,1.97,1.39,3.24,1.82,1.27.43,2.64.64,4.13.64,2.55,0,4.57-.62,6.06-1.87.26-.22.5-.45.72-.7-.32-.71-.48-1.53-.48-2.43h0Z"/>
            <path class="cls-2" d="m186.58,69.73c-.54,1.03-1.25,1.81-2.13,2.31-.89.5-1.96.76-3.22.76-1.65,0-2.97-.45-3.94-1.36-.97-.91-1.45-2.12-1.45-3.64,0-2.1.61-3.7,1.85-4.81,1.23-1.11,3.18-1.81,5.84-2.1.4-.04.91-.09,1.53-.14,2.31-.19,3.47-1.21,3.47-3.03,0-.89-.3-1.57-.9-2.05-.59-.47-1.45-.71-2.57-.71s-2.11.2-2.91.59c-.8.39-1.46,1-2.01,1.83l-.45.04c.13-.51.24-1.04.33-1.57.08-.54.15-1.08.2-1.63,1.32-.71,2.59-1.22,3.8-1.55,1.21-.32,2.47-.48,3.78-.48,2.05,0,3.63.44,4.76,1.32,1.13.88,1.69,2.12,1.69,3.72,0,.92-.31,2.72-.92,5.41-.09.42-.16.74-.21.97-.43,1.89-.73,3.23-.89,4.02-.16.79-.24,1.33-.24,1.6,0,.48.12.85.37,1.09.25.24.63.36,1.12.36.13,0,.27,0,.42-.04.14-.03.35-.08.63-.16l-.08,1.36c-.54.28-1.1.48-1.7.61-.6.13-1.25.2-1.98.2-1.18,0-2.12-.24-2.8-.72-.68-.48-1.15-1.22-1.4-2.21h0Zm.89-7.14h-.47c-1.72,0-3.03.41-3.92,1.24-.9.83-1.35,2.01-1.35,3.56,0,.73.17,1.3.52,1.7.35.4.84.6,1.48.6.99,0,1.73-.43,2.25-1.3.52-.87,1.01-2.8,1.49-5.8h0Z"/>
          </g>
        </g>
      </g>
    </g>
  </g>
</svg>
