<?xml version="1.0" encoding="UTF-8"?>
<svg id="Capa_2" data-name="Capa 2" xmlns="http://www.w3.org/2000/svg" viewBox="0 0 265 115">
  <defs>
    <style>
      .cls-1 {
        fill: none;
      }

      .cls-2 {
        fill: #101010;
      }
    </style>
  </defs>
  <g id="Capa_1-2" data-name="Capa 1">
    <g>
      <rect class="cls-1" width="265" height="115"/>
      <g id="f6d78b45-b915-4470-bbeb-16a6ddb7d6f0">
        <g id="b383c13d-e6ae-4cb6-b95c-7fe5f0d3460f">
          <polygon class="cls-2" points="171.14 64.8 171.14 70.57 179.75 70.57 179.75 72.51 171.14 72.51 171.14 79.8 179.75 79.8 179.75 81.74 169.19 81.74 169.19 62.86 179.75 62.86 179.75 64.8 171.14 64.8"/>
          <polygon class="cls-2" points="157.45 64.8 157.45 70.57 166.06 70.57 166.06 72.51 157.45 72.51 157.45 79.8 166.06 79.8 166.06 81.74 155.5 81.74 155.5 62.86 166.06 62.86 166.06 64.8 157.45 64.8"/>
          <polygon class="cls-2" points="197.5 62.86 197.5 81.74 197.5 81.74 195.55 79.6 184.92 67.9 184.92 81.74 182.97 81.74 182.97 62.86 184.92 65.01 195.55 76.71 195.55 62.86 197.5 62.86"/>
          <polygon class="cls-2" points="128.63 56.15 128.63 60.41 118.03 60.41 118.03 37.25 122.29 37.25 122.29 56.15 128.63 56.15"/>
          <path class="cls-2" d="m149.33,53.47l3.03,3.03c-4.23,5.22-11.89,6.02-17.11,1.79-5.22-4.23-6.02-11.89-1.79-17.11,4.23-5.22,11.89-6.02,17.11-1.79.69.56,1.32,1.2,1.88,1.9l-3.03,3.04c-2.49-3.6-7.43-4.49-11.02-2-3.6,2.49-4.49,7.43-2,11.02,2.49,3.6,7.43,4.49,11.02,2,.74-.51,1.39-1.15,1.91-1.88Z"/>
          <path class="cls-2" d="m90.89,49.87c0,3.26-1.35,6.37-3.75,8.58-5.31,4.13-12.95,3.17-17.08-2.14-1.55-1.99-2.44-4.42-2.55-6.94-.01-.18-.01-.35-.01-.52,0-6.72,5.44-12.17,12.16-12.17,3.72,0,7.24,1.7,9.55,4.62l-3.03,3.04c-2.49-3.6-7.43-4.49-11.02-2-3.6,2.49-4.49,7.43-2,11.02,2.49,3.6,7.43,4.49,11.02,2,.09-.06.18-.13.27-.2.67-.65,1.22-1.41,1.62-2.24h-6.41v-4.27h11.15c.04.41.06.82.06,1.23Z"/>
          <path class="cls-2" d="m106.19,37.27v-.02h-4.55l-8.78,23.16h4.56l1.82-4.8h9.17l1.77,4.8h4.54l-8.53-23.14Zm-5.34,14.08l3.03-8,2.95,8h-5.98Z"/>
          <path class="cls-2" d="m167.69,37.27v-.02h-4.55l-8.78,23.16h4.56l1.82-4.8h9.17l1.77,4.8h4.54l-8.53-23.14Zm-5.34,14.08l3.03-8,2.95,8h-5.98Z"/>
          <rect class="cls-2" x="193.24" y="37.25" width="4.26" height="4.44"/>
          <rect class="cls-2" x="193.24" y="42.78" width="4.26" height=".87"/>
          <rect class="cls-2" x="193.24" y="44.73" width="4.26" height=".87"/>
          <polygon class="cls-2" points="193.24 46.68 197.5 46.68 197.5 60.41 193.24 60.41 183.74 45.31 183.74 60.41 179.48 60.41 179.48 37.25 183.7 37.25 183.74 37.31 193.24 52.41 193.24 46.68"/>
          <path class="cls-2" d="m145.03,72.87l-.02-.02h2.04c.6-.06,1.19-.22,1.73-.49,2.49-1.21,3.53-4.21,2.33-6.7-.77-1.58-2.31-2.65-4.06-2.81h-7.19v18.89h1.95v-8.89h.74v.02s6.92,8.87,6.92,8.87h2.47l-6.9-8.87Zm-3.22-1.97v-6.1h4.86c1.68,0,3.05,1.37,3.05,3.05,0,1.68-1.36,3.04-3.05,3.05h-4.86Z"/>
          <path class="cls-2" d="m136.42,72.62c0,.71-.07,1.43-.2,2.13-1.15,5.23-4.47,7.57-9.3,7.57-5.63,0-10.2-4.48-10.2-10.02s4.56-10.02,10.2-10.02c3.16,0,6.15,1.44,8.09,3.93l-1.34,1.33c-1.58-2.16-4.09-3.43-6.76-3.43-4.59,0-8.32,3.66-8.32,8.17.02,4.54,3.72,8.19,8.25,8.17.02,0,.04,0,.06,0,5.01-.06,6.83-2.89,7.3-5.91h-5.84v-1.94h8.05Z"/>
          <path class="cls-2" d="m67.95,62.86s10.47-3.55,18.3,8.62c0,0,4.62,7.75,13.33,7.55,0,0-8.16,3.2-14.01-4.15s-9.79-12.21-17.62-12.02Z"/>
          <path class="cls-2" d="m90.53,79.72s6.87,5.56,14.35.46c7.48-5.1,11.85-1.63,11.85-1.63,0,0-4.84-5.85-13.89.14,0,0-5.23,3.76-12.31,1.03Z"/>
          <path class="cls-2" d="m88.35,71.55s4.49,4.9,14.14,2.31,11.62.48,13.67,3.26c0,0-3.43-3.48-13.53-.6s-11.97-2.12-14.28-4.98Z"/>
        </g>
      </g>
    </g>
  </g>
</svg>
