<?xml version="1.0" encoding="UTF-8"?>
<svg id="Capa_2" data-name="Capa 2" xmlns="http://www.w3.org/2000/svg" viewBox="0 0 265 115">
  <defs>
    <style>
      .cls-1 {
        fill: none;
      }
    </style>
  </defs>
  <g id="Capa_1-2" data-name="Capa 1">
    <g>
      <rect class="cls-1" width="265" height="115"/>
      <g>
        <g>
          <path d="m78.24,63.98v-23.58h3.79v23.58h-3.79Z"/>
          <path d="m98.34,48.71h3.79v15.27h-3.79v-2.39c-1.02,1.67-3.04,2.78-5.23,2.78-4.08,0-7.36-3.3-7.36-8.04s3.14-8.02,7.45-8.02c2.09,0,4.12.91,5.14,2.52v-2.12Zm-.07,7.62c0-2.62-2.15-4.48-4.41-4.48-2.46,0-4.32,2.02-4.32,4.48s1.86,4.52,4.35,4.52c2.36,0,4.38-1.97,4.38-4.52Z"/>
          <path d="m105.74,59.26h3.57c0,1.04.91,2.02,2.52,2.02,1.51,0,2.48-.75,2.48-1.73,0-.85-.66-1.24-1.8-1.51l-2.02-.53c-3.43-.91-4.32-2.75-4.32-4.68,0-2.39,2.35-4.54,5.69-4.54,2.71,0,5.79,1.37,5.76,4.77h-3.64c0-1.04-.95-1.7-2.02-1.7-1.18,0-1.99.69-1.99,1.64,0,.78.75,1.24,1.64,1.44l2.46.66c3.43.88,4.06,3.04,4.06,4.45,0,3.1-3.1,4.81-6.21,4.81-3.06,0-6.1-1.83-6.16-5.1Z"/>
          <path d="m136.47,57.66h-11.84c.42,2.13,2.06,3.27,4.35,3.27,1.64,0,3.24-.72,4.12-1.97l2.55,1.93c-1.4,2.22-4.12,3.46-6.9,3.46-4.54,0-8.02-3.27-8.02-8.04s3.63-8.02,8.02-8.02,7.78,3.1,7.78,7.88c0,.43-.04.92-.07,1.48Zm-3.7-2.64c-.23-2.09-1.86-3.34-3.99-3.34s-3.7,1.02-4.15,3.34h8.14Z"/>
          <path d="m150.79,48.84l-.75,3.59c-.88-.46-1.67-.56-2.22-.56-2.48,0-3.86,2.48-3.86,6.76v5.33h-3.83v-15.27h3.79v3.27c.82-2.55,2.48-3.66,4.38-3.66.91,0,1.9.19,2.48.52Z"/>
          <path d="m195.25,55.41v8.57h-3.76v-8.37c0-2.46-1.28-3.73-3.04-3.73-2.19,0-3.43,1.51-3.43,4.54v7.56h-3.79v-8.37c0-2.42-1.28-3.73-2.91-3.73-1.77,0-3.53,1.04-3.53,3.96v8.14h-3.79v-15.27h3.79v2.81c.42-2.06,2.62-3.21,4.54-3.21,2.22,0,4.03,1.15,4.94,3.08,1.21-2.39,3.59-3.08,5.14-3.08,3.81,0,5.84,2.65,5.84,7.09Z"/>
          <path d="m157.37,48.71v8.75c0,2.52,1.06,3.78,3.16,3.78s3.14-1.35,3.14-3.88v-8.66h3.72v8.79c0,1.22-.16,2.28-.47,3.16-.31.79-.85,1.51-1.61,2.15-1.25,1.03-2.81,1.58-4.75,1.58s-3.55-.52-4.8-1.55c-.77-.64-1.32-1.35-1.64-2.15-.31-.71-.46-1.76-.46-3.16v-8.82h3.71Z"/>
          <path d="m80.14,74.6c-2.18,0-4.3-.62-6.12-1.81-1.78-1.15-3.19-2.77-4.09-4.68-.42-.89-.04-1.97.86-2.39.89-.42,1.97-.04,2.39.86.62,1.31,1.58,2.41,2.8,3.2,1.24.81,2.69,1.23,4.18,1.23,1.28,0,2.55-.31,3.66-.9,1.08-.57,2.01-1.41,2.71-2.43.24-.34.43-.7.61-1.06.48-.96,1.73-1.28,2.57-.75.84.53,1.09,1.39.67,2.29-.25.55-.56,1.06-.89,1.56-1.02,1.49-2.39,2.71-3.98,3.56-1.64.87-3.49,1.33-5.35,1.33Z"/>
        </g>
        <polygon points="94.98 42.66 93 46.45 95.98 46.45 98.78 42.66 94.98 42.66"/>
      </g>
    </g>
  </g>
</svg>