<?xml version="1.0" encoding="UTF-8"?>
<svg id="Capa_2" data-name="Capa 2" xmlns="http://www.w3.org/2000/svg" viewBox="0 0 265 115">
  <defs>
    <style>
      .cls-1 {
        fill: none;
      }

      .cls-2 {
        fill: #101010;
      }
    </style>
  </defs>
  <g id="Capa_1-2" data-name="Capa 1">
    <g>
      <rect class="cls-1" width="265" height="115"/>
      <g id="Capa_1-2" data-name="Capa 1-2">
        <g>
          <g>
            <path class="cls-2" d="m132.54,46.37h1.44l5.57,7.98h.03v-7.98h1.14v9.61h-1.44l-5.57-7.98h-.03v7.98h-1.14v-9.61Z"/>
            <path class="cls-2" d="m148.51,54.47c0,.58.05,1.09.05,1.51h-1.01c0-.34-.03-.69-.03-1.04h-.03c-.28.62-1.07,1.21-2.12,1.21-1.67,0-2.42-1.06-2.42-2.59v-3.92h1.06v3.81c0,1.06.46,1.72,1.45,1.72,1.37,0,1.97-.99,1.97-2.44v-3.1h1.06v4.85h0Z"/>
            <path class="cls-2" d="m156.25,54.83c-.75.96-1.64,1.32-2.82,1.32-2,0-3.22-1.49-3.22-3.34,0-1.97,1.38-3.34,3.26-3.34s3.01,1.22,3.01,3.32v.34h-5.13c.08,1.1.92,2.04,2.08,2.04.91,0,1.52-.33,2.02-.96l.8.62h0Zm-.91-2.59c-.04-1.07-.75-1.79-1.91-1.79s-1.94.72-2.08,1.79h3.99Z"/>
            <path class="cls-2" d="m161.07,55.98h-1.17l-2.59-6.35h1.23l1.98,4.98h.03l1.89-4.98h1.14l-2.51,6.35h0Z"/>
            <path class="cls-2" d="m167.81,49.47c1.96,0,3.39,1.36,3.39,3.34s-1.44,3.34-3.39,3.34-3.39-1.36-3.39-3.34,1.44-3.34,3.39-3.34Zm0,5.7c1.37,0,2.25-1.03,2.25-2.36s-.88-2.36-2.25-2.36-2.25,1.03-2.25,2.36.88,2.36,2.25,2.36Z"/>
            <path class="cls-2" d="m173.05,54.31c.42.52.88.86,1.63.86.66,0,1.4-.29,1.4-.98s-.68-.85-1.36-1.01c-1.21-.27-2.24-.53-2.24-1.85,0-1.24,1.19-1.87,2.37-1.87.9,0,1.72.34,2.16,1.15l-.88.58c-.27-.45-.72-.76-1.34-.76-.58,0-1.25.29-1.25.88,0,.53.76.76,1.6.92,1.13.22,2.08.62,2.08,1.9,0,1.44-1.28,1.99-2.54,1.99-1.07,0-1.85-.28-2.47-1.18l.84-.65h0Z"/>
            <path class="cls-2" d="m132.38,58.8h2.85c1.77,0,3.37.63,3.37,2.63s-1.79,2.66-3.15,2.66h-1.93v4.32h-1.14s0-9.61,0-9.61Zm1.14,4.24h1.93c1.14,0,1.93-.52,1.93-1.59s-.79-1.59-1.93-1.59h-1.93v3.18h0Z"/>
            <path class="cls-2" d="m143.33,61.9c1.96,0,3.4,1.36,3.4,3.34s-1.44,3.34-3.4,3.34-3.39-1.36-3.39-3.34,1.44-3.34,3.39-3.34Zm0,5.7c1.37,0,2.25-1.03,2.25-2.36s-.88-2.36-2.25-2.36-2.25,1.03-2.25,2.36.88,2.36,2.25,2.36Z"/>
            <path class="cls-2" d="m148.52,58.15h1.06v10.26h-1.06v-10.26Z"/>
            <path class="cls-2" d="m152.85,58.59h1.49l-1.94,1.96h-.96l1.41-1.96h0Zm-1.01,3.48h1.06v6.35h-1.06s0-6.35,0-6.35Z"/>
            <path class="cls-2" d="m155.07,63.57c0-.58-.05-1.09-.05-1.51h1.01c0,.34.03.69.03,1.04h.03c.28-.63,1.07-1.21,2.12-1.21,1.37,0,1.8.77,2.01,1.21.46-.75,1.04-1.21,2.01-1.21,1.82,0,2.42,1.02,2.42,2.66v3.86h-1.06v-3.8c0-.88-.31-1.74-1.55-1.74-.9,0-1.64.73-1.64,1.87v3.67h-1.06v-3.6c0-1.4-.35-1.94-1.22-1.94-1.37,0-1.97.99-1.97,2.44v3.1h-1.06v-4.85h0Z"/>
            <path class="cls-2" d="m172.37,67.26c-.75.96-1.64,1.32-2.82,1.32-1.99,0-3.22-1.49-3.22-3.34,0-1.97,1.38-3.34,3.26-3.34s3.02,1.22,3.02,3.32v.34h-5.13c.08,1.1.92,2.04,2.08,2.04.91,0,1.52-.33,2.02-.96l.8.62h0Zm-.91-2.59c-.04-1.07-.75-1.79-1.91-1.79s-1.94.72-2.08,1.79h3.99Z"/>
            <path class="cls-2" d="m174.3,63.57c0-.58-.05-1.09-.05-1.51h1.01c0,.34.03.69.03,1.04h.03c.28-.63,1.07-1.21,2.12-1.21.14,0,.28.01.43.07l-.07,1.07c-.18-.05-.38-.08-.57-.08-1.29,0-1.86.91-1.86,2.36v3.1h-1.06v-4.85h0Z"/>
            <path class="cls-2" d="m181.93,61.9c1.96,0,3.39,1.36,3.39,3.34s-1.44,3.34-3.39,3.34-3.39-1.36-3.39-3.34,1.44-3.34,3.39-3.34Zm0,5.7c1.37,0,2.25-1.03,2.25-2.36s-.88-2.36-2.25-2.36-2.25,1.03-2.25,2.36.88,2.36,2.25,2.36Z"/>
            <path class="cls-2" d="m187.16,66.74c.42.52.88.86,1.63.86.66,0,1.4-.29,1.4-.98s-.68-.85-1.36-1.01c-1.21-.27-2.24-.53-2.24-1.85,0-1.24,1.19-1.87,2.37-1.87.9,0,1.72.34,2.16,1.15l-.88.58c-.27-.45-.72-.76-1.34-.76-.58,0-1.25.29-1.25.88,0,.53.76.76,1.6.92,1.13.22,2.08.62,2.08,1.9,0,1.44-1.28,1.99-2.54,1.99-1.07,0-1.85-.28-2.47-1.18l.84-.65h0Z"/>
          </g>
          <path class="cls-2" d="m101.36,68.63h-7.4l-9.8-15.97-4.7,15.97h-5.78l6.03-22.07h7.47l10.22,16.08,4.78-16.08h5.26l-6.08,22.07h0Z"/>
          <path class="cls-2" d="m108.6,68.63h-5.92l6.02-22.07h11.68c2.08,0,3.72.19,4.93.56,1.21.38,2.17,1,2.87,1.87.71.87,1.06,1.9,1.06,3.11,0,1.11-.28,2.2-.84,3.25-.56,1.05-1.25,1.9-2.07,2.53s-1.7,1.11-2.64,1.44c-.94.33-2.21.57-3.8.75-.93.1-2.66.15-5.21.15h-3.78l-2.29,8.41h0Zm3.27-12.07h1.82c3.12,0,5.21-.15,6.25-.45s1.87-.78,2.47-1.44c.6-.66.9-1.39.9-2.18,0-.53-.15-.97-.46-1.31-.3-.34-.74-.59-1.29-.75-.56-.16-1.8-.23-3.72-.23h-4.23l-1.74,6.37h0Z"/>
        </g>
      </g>
    </g>
  </g>
</svg>